<svg width="88" height="50" viewBox="0 0 88 50" fill="none" xmlns="http://www.w3.org/2000/svg">
<path d="M87.4933 30.8184V30.8049C87.4968 30.7804 87.4968 30.7555 87.4933 30.731V30.6437C87.4933 30.5234 87.4933 30.4103 87.4871 30.2961V29.9552C87.4804 29.7213 87.4736 29.494 87.4601 29.2667C87.4466 28.9925 87.4269 28.7187 87.3993 28.4506V28.4439C87.3791 28.1366 87.3391 27.8225 87.306 27.508C86.7721 23.4472 85.6021 19.4949 83.8385 15.7946C83.7446 15.6211 83.6641 15.4402 83.5702 15.2661C83.0624 15.8088 82.4876 16.2852 81.8595 16.684C81.4721 16.932 81.0665 17.1507 80.6461 17.3384C80.6259 17.3518 80.5989 17.3585 80.5725 17.372C80.46 17.4184 80.3379 17.4721 80.2102 17.5197C80.029 17.5858 79.835 17.6597 79.6268 17.7196C79.0235 17.8977 78.403 18.012 77.7755 18.0605C77.5349 18.0837 77.2933 18.0949 77.0516 18.094C76.4062 18.0933 75.7628 18.0214 75.1333 17.8797C74.9724 17.8461 74.8115 17.7862 74.6439 17.7459C74.3221 17.6457 73.9689 17.5253 73.5509 17.358C73.0715 17.1664 72.6129 16.9267 72.1823 16.6426L72.1756 16.6353C72.1441 16.6193 72.115 16.5992 72.0889 16.5755C71.975 16.4989 71.8654 16.4163 71.7604 16.328C71.4715 16.0965 71.1959 15.8489 70.9351 15.5863C70.5335 15.1785 70.1617 14.7427 69.8225 14.2821L69.1317 13.3731L66.0603 9.33502L63.431 5.87182L63.3185 5.72464C62.0077 4.03293 60.3763 2.61327 58.5167 1.54602C58.4605 1.51972 58.416 1.49288 58.3626 1.46601C58.2501 1.40556 58.1274 1.34563 58.0071 1.29245C57.7326 1.15811 57.4507 1.03778 57.1633 0.924706C56.8145 0.784208 56.4595 0.671148 56.0944 0.556958C53.6251 -0.110007 51.0314 -0.181007 48.529 0.349852C47.0571 0.710375 45.6531 1.3042 44.3708 2.10858C44.2498 2.18191 44.1227 2.2558 44.0017 2.33584C43.8808 2.2558 43.7537 2.18191 43.6327 2.10858C42.3504 1.30426 40.9463 0.71044 39.4744 0.349852C36.972 -0.181007 34.3783 -0.110007 31.909 0.556958C31.5467 0.668908 31.1912 0.784208 30.8401 0.924706C30.5516 1.03666 30.2697 1.15867 29.9963 1.29245C29.8754 1.34563 29.7545 1.40444 29.6403 1.46601C29.5868 1.49288 29.5401 1.52196 29.4861 1.54602C27.6263 2.61342 25.9946 4.03305 24.6833 5.72464L24.5708 5.87182L21.942 9.33502L18.8701 13.3731L18.1793 14.2821C17.8399 14.7429 17.4677 15.1788 17.0655 15.5863C16.8053 15.8491 16.5301 16.0967 16.2414 16.328C16.1361 16.4162 16.0262 16.4988 15.9122 16.5755C15.8863 16.5993 15.8571 16.6194 15.8256 16.6353L15.8189 16.6426C15.3883 16.9267 14.9297 17.1664 14.4502 17.358C14.0351 17.5259 13.6796 17.6457 13.3578 17.7459C13.1891 17.7856 13.0287 17.8461 12.8678 17.8797C12.2383 18.0215 11.5951 18.0933 10.9496 18.094C10.7079 18.0949 10.4662 18.0837 10.2256 18.0605C9.59817 18.012 8.9777 17.8977 8.37437 17.7196C8.1668 17.6591 7.9721 17.5858 7.79097 17.5197C7.66327 17.4727 7.54237 17.419 7.42874 17.372C7.4023 17.3585 7.37531 17.3518 7.35506 17.3384C6.93472 17.1508 6.52913 16.9321 6.14169 16.684C5.51342 16.2854 4.93859 15.8089 4.43102 15.2661C4.33708 15.4402 4.25662 15.6211 4.16212 15.7946C2.39898 19.495 1.22919 23.4473 0.695254 27.508C0.661502 27.8225 0.621566 28.1366 0.601315 28.4439V28.4506C0.574314 28.7182 0.554594 28.9925 0.541093 29.2667C0.527592 29.494 0.520844 29.7218 0.514656 29.9552V30.2961C0.507905 30.4081 0.507926 30.5234 0.507926 30.6437V30.731C0.504456 30.7556 0.504456 30.7804 0.507926 30.8049V30.8184C0.502103 30.8695 0.4998 30.9209 0.501128 30.9723C0.501128 31.1324 0.501176 31.2931 0.507926 31.4531V31.4733C0.507926 31.7873 0.521425 32.0952 0.534364 32.4092C0.702368 36.1463 1.9894 39.748 4.23017 42.7517C4.25529 42.7889 4.28236 42.8248 4.31119 42.8592C4.39782 42.979 4.49852 43.0927 4.59246 43.2136C4.6864 43.3345 4.80056 43.461 4.90181 43.5813C6.11336 44.9723 7.51252 46.1897 9.05948 47.199C9.07973 47.2119 9.10618 47.2326 9.12643 47.2455C9.13318 47.2516 9.13994 47.2516 9.14669 47.2583C10.0338 47.81 10.9671 48.2844 11.9363 48.6762C14.5029 49.6139 17.224 50.063 19.9574 50C20.8834 49.9938 21.8554 49.9401 22.8483 49.84C22.9293 49.8332 23.0024 49.8265 23.0829 49.813L23.1391 49.8063C31.1427 48.925 38.5546 45.1888 44.0034 39.2892C49.4524 45.1888 56.8645 48.925 64.8683 49.8063L64.9245 49.813C65.005 49.8265 65.0786 49.8332 65.1591 49.84C66.152 49.9396 67.124 49.9938 68.0494 50C70.7829 50.063 73.5038 49.614 76.0705 48.6762C77.0401 48.2845 77.9738 47.8101 78.8613 47.2583C78.8674 47.2522 78.8747 47.2522 78.8809 47.2455C78.9011 47.2321 78.9282 47.2119 78.9478 47.199C80.4949 46.1896 81.8943 44.9722 83.1061 43.5813C83.2068 43.461 83.3142 43.3412 83.4149 43.2136C83.5156 43.086 83.6096 42.9796 83.6962 42.8592C83.7232 42.8256 83.7525 42.792 83.7772 42.7517C86.0177 39.7479 87.3045 36.1462 87.4725 32.4092C87.486 32.0952 87.4989 31.7873 87.4989 31.4733V31.4531C87.5057 31.2931 87.5056 31.1324 87.5056 30.9723C87.5052 30.9208 87.5011 30.8693 87.4933 30.8184ZM48.2662 6.66334C48.2966 6.64989 48.3258 6.63393 48.3535 6.61572C49.4245 6.12681 50.5891 5.87385 51.7674 5.87407C52.1239 5.87158 52.4801 5.89402 52.8335 5.94124L52.8604 5.9547C53.5726 6.04866 54.2694 6.23514 54.9328 6.5094C55.5971 6.78365 56.2199 7.14812 56.7835 7.59248L56.7971 7.60649C57.3589 8.03915 57.8597 8.54504 58.2861 9.11056L60.6599 12.1792L62.504 14.5727L62.5242 14.5928L62.5377 14.6129L65.5157 18.4702L65.5225 18.4635C65.5962 18.557 65.6564 18.6437 65.7306 18.7377L65.9725 19.0512C66.2745 19.4318 66.5969 19.7958 66.9384 20.1416L67.0509 20.2536L67.0981 20.3C67.5844 20.7963 68.1043 21.2588 68.6541 21.6843C68.8622 21.8382 69.0704 21.9922 69.2841 22.1321C69.3848 22.2055 69.4922 22.2721 69.5929 22.3392C69.7673 22.4512 69.935 22.5536 70.1026 22.6538C70.2438 22.7338 70.3918 22.8145 70.5318 22.8872C70.6123 22.9343 70.7006 22.974 70.7799 23.021C71.1972 23.2277 71.625 23.4131 72.0614 23.5763C72.2622 23.6496 72.4636 23.7168 72.6582 23.7767C72.7989 23.8237 72.9468 23.8701 73.0874 23.9037C73.2084 23.9373 73.3293 23.9709 73.4497 23.9977L73.5301 24.0173L73.8114 24.0773C73.9998 24.1176 74.1871 24.1506 74.3683 24.1841C74.6434 24.2244 74.9044 24.2581 75.1598 24.2844C75.3341 24.3045 75.5018 24.3107 75.6621 24.3247C75.9108 24.3381 76.1454 24.3442 76.3732 24.3442C77.363 24.3588 78.3498 24.2329 79.304 23.9703L79.2972 23.9838C79.0829 24.3851 74.6158 32.3801 64.4683 28.0952C63.6031 27.6938 59.3313 25.4274 55.1657 18.4075L54.5953 17.4318L51.772 12.6779L50.7257 10.9264L50.3696 10.3246C48.9278 7.90426 48.2174 6.70079 48.2174 6.70079C48.2342 6.68921 48.2503 6.67675 48.2657 6.66334H48.2662ZM8.71634 23.9793C8.73022 23.9826 8.74378 23.9871 8.75686 23.9928C9.41445 24.1797 15.5174 25.7638 20.9031 20.3017L20.9503 20.2553L21.0628 20.1433C21.4042 19.7973 21.7266 19.4333 22.0287 19.0529L22.27 18.7395C22.3442 18.6454 22.4044 18.5587 22.4781 18.4652L22.4844 18.4719L25.4624 14.6146L25.4759 14.5945L25.4955 14.5743L27.3401 12.1808L29.714 9.11227C30.1402 8.54666 30.641 8.04075 31.203 7.6082L31.2165 7.59419C31.7804 7.14982 32.4034 6.78528 33.0678 6.51104C33.7312 6.23674 34.4279 6.05026 35.1401 5.95634L35.166 5.94288C35.5203 5.89561 35.8774 5.87316 36.2349 5.87571C37.4133 5.8754 38.5778 6.12844 39.6488 6.61743C39.6764 6.63559 39.7054 6.65148 39.7355 6.66498C39.7355 6.66498 39.7563 6.6846 39.7827 6.70475L39.776 6.71814C39.6882 6.85864 38.9845 8.06159 37.6294 10.3286L37.2738 10.9303L36.2275 12.6818L33.4048 17.4358L32.8343 18.4114C31.2684 21.145 29.2814 23.6175 26.9457 25.7386C25.9232 26.6791 24.7742 27.4735 23.5318 28.0991C13.1249 32.4915 8.6967 23.9737 8.6967 23.9737L8.71634 23.9793ZM66.2127 43.8444C66.179 43.8444 66.1457 43.8377 66.1125 43.8377C61.6582 43.5028 57.351 42.1025 53.5571 39.7559C49.7633 37.4093 46.5951 34.1858 44.3218 30.3594L44.3151 30.3526C44.2076 30.1925 44.1001 30.0257 44 29.8578C43.8993 30.0257 43.7924 30.1937 43.6844 30.3526L43.6782 30.3594C41.405 34.1857 38.2369 37.4092 34.4432 39.7558C30.6494 42.1024 26.3423 43.5027 21.888 43.8377C21.8543 43.8377 21.8205 43.8444 21.7879 43.8444C5.91328 45.0809 6.44939 30.3656 6.44939 30.3656L6.45557 30.3789C6.46907 30.3991 6.49606 30.4389 6.52925 30.4909C6.93202 31.0994 8.87665 33.6865 13.2492 34.904L13.7122 35.0238C13.8331 35.0506 13.9541 35.0842 14.0745 35.1044C14.6715 35.242 15.2761 35.3447 15.8853 35.4117C17.1972 35.5527 18.519 35.5774 19.8353 35.4856L20.2516 35.4453L20.4997 35.4251C21.9213 35.2884 23.3191 34.9685 24.6579 34.4736C24.7985 34.4204 24.9392 34.3661 25.0804 34.3135C27.1424 33.4784 29.0542 32.3154 30.7412 30.8699C31.7605 29.9743 34.9798 26.8648 38.5682 20.5541L38.5812 20.5273C38.7421 20.2396 38.8967 19.9675 39.0509 19.6916L39.3794 19.1167L41.4855 15.4061L44.0006 10.993L46.5157 15.4061L48.6218 19.1167L48.9503 19.6916C49.105 19.9658 49.2591 20.2396 49.42 20.5273L49.4335 20.5541C53.0219 26.8654 56.2402 29.9743 57.26 30.8699C58.9471 32.3152 60.8589 33.4782 62.9208 34.3135L63.3432 34.4736C64.682 34.9686 66.0799 35.2884 67.5015 35.4251L67.7501 35.4453L68.1658 35.4856C69.4823 35.5774 70.8044 35.5527 72.1165 35.4117C72.7256 35.3446 73.3303 35.242 73.9273 35.1044C74.0477 35.0842 74.1686 35.0484 74.289 35.0238L74.7519 34.904C79.125 33.6871 81.0697 31.0977 81.472 30.4909C81.5057 30.435 81.5321 30.3974 81.5456 30.3789L81.5524 30.3656C81.5524 30.3656 82.0874 45.0792 66.2127 43.8444Z" fill="black"/>
</svg>
